<?xml version="1.0" encoding="UTF-8" standalone="no"?>
<svg width="404px" height="212px" viewBox="0 0 404 212" version="1.1" xmlns="http://www.w3.org/2000/svg" xmlns:xlink="http://www.w3.org/1999/xlink">
    <!-- Generator: Sketch 46.2 (44496) - http://www.bohemiancoding.com/sketch -->
    <title>forresterwave copy 2</title>
    <desc>Created with Sketch.</desc>
    <defs>
        <linearGradient x1="108.466703%" y1="-5.34970277%" x2="-12.3179798%" y2="18.1284609%" id="linearGradient-1">
            <stop stop-color="#36D4ED" offset="0%"></stop>
            <stop stop-color="#161616" stop-opacity="0" offset="100%"></stop>
        </linearGradient>
    </defs>
    <g id="Page-1" stroke="none" stroke-width="1" fill="none" fill-rule="evenodd">
        <g id="forresterwave-copy" transform="translate(-135.000000, 0.000000)" fill="url(#linearGradient-1)">
            <g id="waves">
                <path d="M647.694841,365.659371 C725.285554,350.56787 666.650274,291.686208 651.568167,214.047164 C636.486061,136.408121 658.13938,23.6012008 571.27919,3.08214122 C436.389178,-28.7830457 393.311065,197.286602 256.160149,182.061754 C93.1631014,163.96778 9.98313994,342.345455 19.7754663,392.753987 C34.857573,470.393031 570.104129,380.750873 647.694841,365.659371 Z" id="Oval-2"></path>
                <path d="M628.694841,390.659371 C706.285554,375.56787 647.650274,316.686208 632.568167,239.047164 C617.486061,161.408121 639.13938,48.6012008 552.27919,28.0821412 C417.389178,-3.78304571 374.311065,222.286602 237.160149,207.061754 C74.1631014,188.96778 -9.01686006,367.345455 0.775466338,417.753987 C15.857573,495.393031 551.104129,405.750873 628.694841,390.659371 Z" id="Oval-2"></path>
                <path d="M665.694841,390.659371 C743.285554,375.56787 684.650274,316.686208 669.568167,239.047164 C654.486061,161.408121 676.13938,48.6012008 589.27919,28.0821412 C454.389178,-3.78304571 411.311065,222.286602 274.160149,207.061754 C111.163101,188.96778 27.9831399,367.345455 37.7754663,417.753987 C52.857573,495.393031 588.104129,405.750873 665.694841,390.659371 Z" id="Oval-2"></path>
            </g>
        </g>
    </g>
</svg>